#!OML:ASF F:\VICON\USERDATA\INSTALL\Justin_Nancy\Justin_Nancy.ASF
:FULLY-SPECIFIED
:DEGREES
64
root 0.509823 17.4046 -20.7633 -0.583946 -2.70012 -5.27588
lowerback 5.86508 1.15032 4.75193
upperback 0.738021 1.93103 3.58402
thorax -2.49606 0.92982 0.881276
lowerneck -14.7089 -3.71223 -9.60417
upperneck 21.6594 -4.14896 5.67375
head 9.60159 -2.09815 3.05276
rclavicle -1.17283e-014 9.54166e-015
rhumerus -23.0937 -4.89307 -80.3256
rradius 35.4324
rwrist 3.542
rhand -16.1673 12.4594
rfingers 7.12502
rthumb 10.0388 -17.2812
lclavicle -1.17283e-014 9.54166e-015
lhumerus -34.4467 12.3293 85.9881
lradius 21.6919
lwrist -14.6852
lhand -11.5813 30.3882
lfingers 7.12502
lthumb 14.4605 59.8643
rfemur 3.43172 5.33044 31.8996
rtibia 17.7358
rfoot -14.2988 -7.03953
rtoes 1.09357
lfemur -30.3374 -0.963888 -14.0009
ltibia 35.7138
lfoot -2.9581 7.50042
ltoes -1.11466
65
root 0.506795 17.3972 -20.6126 -0.250763 -2.61879 -5.31659
lowerback 5.7367 1.14318 4.67896
upperback 0.668951 1.91312 3.64071
thorax -2.50033 0.921317 0.983946
lowerneck -14.9229 -3.82183 -9.69585
upperneck 21.7049 -4.24155 5.60114
head 9.66742 -2.15386 3.02863
rclavicle 8.00108e-015 8.74653e-015
rhumerus -22.6706 -4.58817 -80.2683
rradius 35.792
rwrist 3.3778
rhand -16.4077 13.2836
rfingers 7.12502
rthumb 9.80683 -16.468
lclavicle 8.00108e-015 8.74653e-015
lhumerus -34.6134 12.7813 85.919
lradius 21.5801
lwrist -14.5617
lhand -11.7145 29.8014
lfingers 7.12502
lthumb 14.3321 59.2867
rfemur 4.04833 5.29706 31.9528
rtibia 16.9731
rfoot -14.355 -7.06582
rtoes 0.628067
lfemur -30.5824 -1.83735 -13.6714
ltibia 33.1554
lfoot -2.08031 7.30237
ltoes -1.58031
66
root 0.503982 17.3859 -20.4571 -0.045996 -2.68377 -5.37793
lowerback 5.70963 1.18635 4.63364
upperback 0.618973 1.97001 3.68597
thorax -2.53914 0.9493 1.05174
lowerneck -15.1614 -3.85028 -9.53981
upperneck 21.7 -4.23932 5.36552
head 9.7018 -2.16224 2.91712
rclavicle -1.05853e-014 -4.77083e-015
rhumerus -22.3406 -4.23008 -80.1891
rradius 36.1297
rwrist 3.0861
rhand -16.4566 13.0777
rfingers 7.12502
rthumb 9.75961 -16.6761
lclavicle -1.05853e-014 -4.77083e-015
lhumerus -34.6706 13.1313 85.8611
lradius 21.3919
lwrist -14.8021
lhand -11.294 30.2846
lfingers 7.12502
lthumb 14.7373 59.7407
rfemur 4.8019 5.26359 32.013
rtibia 16.2509
rfoot -14.4925 -7.03772
rtoes 0.0193477
lfemur -30.7259 -2.57012 -13.319
ltibia 30.7197
lfoot -1.10069 7.06889
ltoes -2.22299
67
root 0.503691 17.3738 -20.3006 0.150809 -2.73318 -5.41413
lowerback 5.52207 1.19331 4.62996
upperback 0.599888 1.96628 3.68971
thorax -2.45406 0.948737 1.06196
lowerneck -15.429 -3.81547 -9.61318
upperneck 21.7927 -4.17158 5.46469
head 9.7829 -2.12305 2.97237
rclavicle 2.5345e-015 -2.38542e-015
rhumerus -22.0303 -3.91693 -80.2012
rradius 36.4223
rwrist 2.84554
rhand -16.6889 13.2573
rfingers 7.12502
rthumb 9.53555 -16.5069
lclavicle 2.5345e-015 -2.38542e-015
lhumerus -34.7171 13.7898 85.605
lradius 21.0865
lwrist -15.3596
lhand -11.0122 30.0637
lfingers 7.12502
lthumb 15.0087 59.4998
rfemur 5.56799 5.24602 32.0479
rtibia 15.528
rfoot -14.5748 -7.01267
rtoes 0.178832
lfemur -30.8816 -3.37746 -12.9609
ltibia 28.4891
lfoot -0.393074 6.99404
ltoes -3.97268
68
root 0.51123 17.3621 -20.1388 0.394035 -2.82728 -5.32168
lowerback 5.15229 1.25939 4.59606
upperback 0.608532 2.02227 3.61085
thorax -2.23523 0.980233 1.00413
lowerneck -15.4226 -3.81585 -9.64965
upperneck 21.6033 -4.18699 5.58728
head 9.71914 -2.11745 3.01743
rclavicle 7.15625e-015 7.79236e-014
rhumerus -21.6725 -3.81349 -80.2064
rradius 36.6302
rwrist 2.67669
rhand -17.0561 13.3133
rfingers 7.12502
rthumb 9.18121 -16.4669
lclavicle 7.15625e-015 7.79236e-014
lhumerus -34.9141 14.0322 85.477
lradius 21.103
lwrist -15.4743
lhand -10.9659 29.5366
lfingers 7.12502
lthumb 15.0533 58.9693
rfemur 6.30143 5.10853 31.8625
rtibia 14.7707
rfoot -14.6193 -6.777
rtoes -0.254026
lfemur -31.0946 -4.37584 -12.6739
ltibia 26.5838
lfoot -0.419083 7.40613
ltoes -4.29492
69
root 0.51534 17.3483 -19.9724 0.608578 -3.07297 -5.35186
lowerback 4.90015 1.43086 4.66131
upperback 0.508347 2.23892 3.51099
thorax -2.18754 1.08711 0.855745
lowerneck -15.0738 -3.84506 -9.42282
upperneck 21.424 -4.29496 5.50342
head 9.59192 -2.16148 2.93643
rclavicle 1.02871e-014 1.82882e-014
rhumerus -21.7472 -4.13214 -80.2178
rradius 37.0198
rwrist 2.69102
rhand -17.437 13.139
rfingers 7.12502
rthumb 8.81369 -16.657
lclavicle 1.02871e-014 1.82882e-014
lhumerus -35.2356 13.6173 85.4937
lradius 21.0669
lwrist -15.2409
lhand -10.7098 30.025
lfingers 7.12502
lthumb 15.3001 59.4391
rfemur 7.02989 5.07702 31.8234
rtibia 14.0822
rfoot -14.5993 -6.52188
rtoes -1.23221
lfemur -31.3271 -5.38573 -12.1796
ltibia 25.0659
lfoot -0.984963 8.31084
ltoes -3.69963
70
root 0.515531 17.3323 -19.8107 0.821065 -3.22728 -5.42938
lowerback 4.82325 1.53155 4.64184
upperback 0.330465 2.3768 3.51059
thorax -2.32651 1.15223 0.856899
lowerneck -14.8374 -3.84967 -9.29253
upperneck 21.4271 -4.33001 5.38825
head 9.54586 -2.18335 2.87187
rclavicle -3.08116e-015 7.95139e-016
rhumerus -22.0086 -4.03394 -80.1791
rradius 37.5747
rwrist 2.4884
rhand -17.668 13.0592
rfingers 7.12502
rthumb 8.59072 -16.746
lclavicle -3.08116e-015 7.95139e-016
lhumerus -35.5519 13.577 85.4543
lradius 20.7996
lwrist -15.2017
lhand -10.6355 30.3619
lfingers 7.12502
lthumb 15.3716 59.7705
rfemur 7.67022 4.99167 31.8601
rtibia 13.5393
rfoot -14.6318 -6.35947
rtoes -2.28984
lfemur -31.6306 -5.89483 -11.8251
ltibia 23.8696
lfoot -1.93069 8.87256
ltoes -3.93116
71
root 0.517613 17.3158 -19.6539 1.0212 -3.35168 -5.4904
lowerback 4.69823 1.61897 4.64591
upperback 0.37838 2.48127 3.50821
thorax -2.20471 1.20665 0.850125
lowerneck -15.2866 -3.96665 -9.29726
upperneck 21.4611 -4.46253 5.43995
head 9.65428 -2.23304 2.86889
rclavicle -1.93815e-014 -3.97569e-014
rhumerus -21.6655 -3.99145 -80.158
rradius 37.7997
rwrist 2.20612
rhand -17.4312 13.3502
rfingers 7.12502
rthumb 8.81922 -16.4455
lclavicle -1.93815e-014 -3.97569e-014
lhumerus -35.4313 13.9306 85.3344
lradius 20.5292
lwrist -15.4681
lhand -10.6949 30.0227
lfingers 7.12502
lthumb 15.3144 59.4357
rfemur 8.2639 4.96357 31.9068
rtibia 13.1809
rfoot -14.7827 -6.41083
rtoes -3.05909
lfemur -31.8938 -5.79172 -11.7472
ltibia 22.9337
lfoot -3.55224 9.04419
ltoes -3.96685
72
root 0.52202 17.2995 -19.4938 1.1815 -3.4616 -5.41352
lowerback 4.52999 1.685 4.63572
upperback 0.461009 2.5486 3.38654
thorax -2.01855 1.24361 0.733166
lowerneck -15.607 -4.01552 -9.25269
upperneck 21.3195 -4.53791 5.56916
head 9.67197 -2.24378 2.89193
rclavicle -1.78906e-015 2.54444e-014
rhumerus -21.1883 -4.17548 -80.245
rradius 37.7549
rwrist 2.01685
rhand -17.1184 13.8602
rfingers 7.12502
rthumb 9.12113 -15.9226
lclavicle -1.78906e-015 2.54444e-014
lhumerus -35.363 13.9332 85.2581
lradius 20.4723
lwrist -15.227
lhand -11.0719 29.2628
lfingers 7.12502
lthumb 14.9512 58.7031
rfemur 8.8373 4.93827 31.8133
rtibia 13.0099
rfoot -14.9347 -6.6671
rtoes -4.11395
lfemur -32.0037 -5.86032 -11.8097
ltibia 22.2311
lfoot -5.72369 9.47314
ltoes -4.30585
73
root 0.525808 17.275 -19.3416 1.30872 -3.50258 -5.3138
lowerback 4.48139 1.65937 4.52392
upperback 0.389454 2.50783 3.30855
thorax -2.06715 1.22261 0.71763
lowerneck -15.4028 -3.91404 -9.34635
upperneck 21.2271 -4.43628 5.76865
head 9.59913 -2.18475 2.99276
rclavicle -1.3418e-014 4.77083e-015
rhumerus -21.0958 -3.96285 -80.3399
rradius 37.881
rwrist 1.88454
rhand -17.0433 14.2233
rfingers 7.12502
rthumb 9.19355 -15.5563
lclavicle -1.3418e-014 4.77083e-015
lhumerus -35.6359 14.1291 85.0828
lradius 20.5438
lwrist -15.0675
lhand -10.942 29.6635
lfingers 7.12502
lthumb 15.0764 59.0945
rfemur 9.36254 5.004 31.7213
rtibia 12.9481
rfoot -15.035 -6.8946
rtoes -4.46562
lfemur -32.0756 -6.13735 -11.8442
ltibia 21.7433
lfoot -7.61079 9.99338
ltoes -6.72134
74
root 0.532859 17.2522 -19.1919 1.53426 -3.49869 -5.2769
lowerback 4.37612 1.62858 4.49011
upperback 0.303886 2.46167 3.26983
thorax -2.09699 1.19859 0.701132
lowerneck -15.4486 -3.87226 -9.51477
upperneck 21.3113 -4.37108 5.92715
head 9.63946 -2.15084 3.08638
rclavicle -3.91606e-014 -2.78299e-015
rhumerus -21.0049 -3.80871 -80.3892
rradius 38.0258
rwrist 1.88027
rhand -17.1809 14.3489
rfingers 7.12502
rthumb 9.06083 -15.4365
lclavicle -3.91606e-014 -2.78299e-015
lhumerus -35.7808 14.3225 84.9552
lradius 20.4772
lwrist -15.1934
lhand -10.4496 30.4084
lfingers 7.12502
lthumb 15.5507 59.8031
rfemur 9.68744 5.0554 31.6675
rtibia 12.9137
rfoot -15.0087 -6.95202
rtoes -5.34173
lfemur -32.2442 -5.90927 -12.0423
ltibia 21.496
lfoot -8.5327 9.75774
ltoes -9.53784
75
root 0.542016 17.2348 -19.0421 1.68294 -3.43978 -5.30099
lowerback 4.42591 1.62811 4.54742
upperback 0.210026 2.47199 3.24177
thorax -2.21798 1.20019 0.636654
lowerneck -15.4121 -3.90774 -9.59724
upperneck 21.2403 -4.42657 6.03512
head 9.61696 -2.17136 3.13019
rclavicle 2.11706e-014 2.38542e-014
rhumerus -20.9537 -3.82285 -80.3776
rradius 38.1174
rwrist 1.7897
rhand -17.2421 14.3367
rfingers 7.12502
rthumb 9.00177 -15.4513
lclavicle 2.11706e-014 2.38542e-014
lhumerus -35.8956 14.1404 85.0288
lradius 20.4738
lwrist -14.9976
lhand -10.1574 31.2213
lfingers 7.12502
lthumb 15.8321 60.594
rfemur 10.0286 5.1686 31.7189
rtibia 12.9599
rfoot -14.963 -7.15464
rtoes -5.97907
lfemur -32.2578 -5.40033 -12.3434
ltibia 21.4509
lfoot -8.35332 8.82576
ltoes -10.9288
76
root 0.547963 17.2295 -18.892 1.62686 -3.38827 -5.28615
lowerback 4.76716 1.57049 4.43784
upperback 0.113619 2.4202 3.28255
thorax -2.5165 1.17008 0.730678
lowerneck -15.42 -3.85794 -9.53884
upperneck 21.2265 -4.33936 5.90533
head 9.60173 -2.14021 3.08601
rclavicle -2.91468e-014 -2.62396e-014
rhumerus -20.9826 -3.55685 -80.3564
rradius 38.2626
rwrist 1.50818
rhand -16.9335 14.3888
rfingers 7.12502
rthumb 9.29946 -15.3861
lclavicle -2.91468e-014 -2.62396e-014
lhumerus -36.2135 14.0763 85.1089
lradius 20.7075
lwrist -14.9112
lhand -9.91173 31.5103
lfingers 7.12502
lthumb 16.0686 60.8641
rfemur 10.5566 5.37043 31.7961
rtibia 13.1881
rfoot -15.0344 -7.44297
rtoes -7.07801
lfemur -31.9609 -4.54273 -12.9059
ltibia 21.4943
lfoot -7.01058 7.62247
ltoes -10.3665
